<svg xmlns="http://www.w3.org/2000/svg" viewBox="0 0 32 32" width="32" height="32">
  <rect width="32" height="32" rx="8" fill="#211C16" />
  <path
    d="M16 6.5c-3.6 0-6.2 2.3-6.2 5.3 0 1.2.4 2.2 1.1 3-.6.8-1 1.8-1 2.9 0 3 2.6 5.3 6.1 5.3s6.1-2.3 6.1-5.3c0-1.1-.4-2.1-1-2.9.7-.8 1.1-1.8 1.1-3 0-3-2.6-5.3-6.2-5.3Z"
    fill="none"
    stroke="#F6F1E9"
    stroke-width="1.6"
  />
  <path d="M16 8.5v15" stroke="#F6F1E9" stroke-width="1.6" stroke-linecap="round" />
  <circle cx="16" cy="13" r="1.6" fill="#F05A3C" />
  <circle cx="12.4" cy="18.4" r="1.3" fill="#F05A3C" />
  <circle cx="19.6" cy="18.4" r="1.3" fill="#F05A3C" />
</svg>
